<mxfile host="app.diagrams.net" modified="2021-12-10T11:43:32.375Z" agent="5.0 (Windows NT 10.0; Win64; x64) AppleWebKit/537.36 (KHTML, like Gecko) Chrome/96.0.4664.93 Safari/537.36" etag="6WStt8GoOtgWbPbGAd2I" version="15.9.4" type="github">
  <diagram id="ADWof2wx8BgHxrEmCnHG" name="Page-1">
    <mxGraphModel dx="1422" dy="798" grid="1" gridSize="10" guides="1" tooltips="1" connect="1" arrows="1" fold="1" page="1" pageScale="1" pageWidth="827" pageHeight="1169" math="0" shadow="0">
      <root>
        <mxCell id="0" />
        <mxCell id="1" parent="0" />
        <mxCell id="Q9d0RFTFAIisrgZCZcX0-4" value="3" style="ellipse;fillColor=#ffffff;strokeColor=#000000;fontSize=18;" parent="1" vertex="1">
          <mxGeometry x="447.5" y="120" width="30" height="30" as="geometry" />
        </mxCell>
        <mxCell id="Q9d0RFTFAIisrgZCZcX0-66" value="p : platoon" style="html=1;align=left;verticalAlign=top;rounded=1;absoluteArcSize=1;arcSize=10;dashed=0;" parent="1" vertex="1">
          <mxGeometry x="414.37" y="275" width="305.63" height="80" as="geometry" />
        </mxCell>
        <mxCell id="Q9d0RFTFAIisrgZCZcX0-67" value="connV" style="html=1;" parent="1" vertex="1">
          <mxGeometry x="489.37" y="300" width="50" height="20" as="geometry" />
        </mxCell>
        <mxCell id="Q9d0RFTFAIisrgZCZcX0-68" value="v2 : vehicle" style="html=1;align=center;verticalAlign=top;rounded=1;absoluteArcSize=1;arcSize=10;dashed=0;" parent="1" vertex="1">
          <mxGeometry x="489.37" y="290" width="95" height="50" as="geometry" />
        </mxCell>
        <mxCell id="Q9d0RFTFAIisrgZCZcX0-69" value="connV" style="html=1;" parent="1" vertex="1">
          <mxGeometry x="489.37" y="310" width="35" height="20" as="geometry" />
        </mxCell>
        <mxCell id="Q9d0RFTFAIisrgZCZcX0-70" value="docks" style="html=1;" parent="1" vertex="1">
          <mxGeometry x="554.37" y="310" width="30" height="20" as="geometry" />
        </mxCell>
        <mxCell id="Q9d0RFTFAIisrgZCZcX0-71" value="connV" style="html=1;" parent="1" vertex="1">
          <mxGeometry x="615" y="300" width="50" height="20" as="geometry" />
        </mxCell>
        <mxCell id="Q9d0RFTFAIisrgZCZcX0-72" value="v3 : vehicle" style="html=1;align=center;verticalAlign=top;rounded=1;absoluteArcSize=1;arcSize=10;dashed=0;" parent="1" vertex="1">
          <mxGeometry x="615" y="290" width="95" height="50" as="geometry" />
        </mxCell>
        <mxCell id="Q9d0RFTFAIisrgZCZcX0-73" value="connV" style="html=1;" parent="1" vertex="1">
          <mxGeometry x="615" y="310" width="35" height="20" as="geometry" />
        </mxCell>
        <mxCell id="Q9d0RFTFAIisrgZCZcX0-74" value="" style="rounded=0;orthogonalLoop=1;jettySize=auto;html=1;endArrow=none;endFill=0;exitX=0;exitY=0.5;exitDx=0;exitDy=0;" parent="1" source="Q9d0RFTFAIisrgZCZcX0-73" target="Q9d0RFTFAIisrgZCZcX0-76" edge="1">
          <mxGeometry relative="1" as="geometry">
            <mxPoint x="584.37" y="320" as="sourcePoint" />
          </mxGeometry>
        </mxCell>
        <mxCell id="Q9d0RFTFAIisrgZCZcX0-75" value="" style="rounded=0;orthogonalLoop=1;jettySize=auto;html=1;endArrow=halfCircle;endFill=0;endSize=6;strokeWidth=1;exitX=1;exitY=0.5;exitDx=0;exitDy=0;" parent="1" source="Q9d0RFTFAIisrgZCZcX0-83" edge="1">
          <mxGeometry relative="1" as="geometry">
            <mxPoint x="590" y="360" as="sourcePoint" />
            <mxPoint x="600" y="320" as="targetPoint" />
            <Array as="points">
              <mxPoint x="600" y="320" />
            </Array>
          </mxGeometry>
        </mxCell>
        <mxCell id="Q9d0RFTFAIisrgZCZcX0-76" value="" style="ellipse;whiteSpace=wrap;html=1;fontFamily=Helvetica;fontSize=12;fontColor=#000000;align=center;strokeColor=#000000;fillColor=#ffffff;points=[];aspect=fixed;resizable=0;" parent="1" vertex="1">
          <mxGeometry x="595" y="315" width="10" height="10" as="geometry" />
        </mxCell>
        <mxCell id="Q9d0RFTFAIisrgZCZcX0-77" value="docks" style="html=1;" parent="1" vertex="1">
          <mxGeometry x="680" y="310" width="30" height="20" as="geometry" />
        </mxCell>
        <mxCell id="Q9d0RFTFAIisrgZCZcX0-78" value="leader" style="html=1;" parent="1" vertex="1">
          <mxGeometry x="414.37" y="310" width="35" height="20" as="geometry" />
        </mxCell>
        <mxCell id="Q9d0RFTFAIisrgZCZcX0-79" value="" style="rounded=0;orthogonalLoop=1;jettySize=auto;html=1;endArrow=none;endFill=0;exitX=0;exitY=0.5;exitDx=0;exitDy=0;" parent="1" source="Q9d0RFTFAIisrgZCZcX0-69" edge="1">
          <mxGeometry relative="1" as="geometry">
            <mxPoint x="510" y="390" as="sourcePoint" />
            <mxPoint x="469.3699999999999" y="320" as="targetPoint" />
            <Array as="points" />
          </mxGeometry>
        </mxCell>
        <mxCell id="Q9d0RFTFAIisrgZCZcX0-80" value="" style="rounded=0;orthogonalLoop=1;jettySize=auto;html=1;endArrow=halfCircle;endFill=0;endSize=6;strokeWidth=1;" parent="1" edge="1">
          <mxGeometry relative="1" as="geometry">
            <mxPoint x="472.3699999999999" y="320" as="sourcePoint" />
            <mxPoint x="472.3699999999999" y="320" as="targetPoint" />
          </mxGeometry>
        </mxCell>
        <mxCell id="Q9d0RFTFAIisrgZCZcX0-81" value="" style="ellipse;whiteSpace=wrap;html=1;fontFamily=Helvetica;fontSize=12;fontColor=#000000;align=center;strokeColor=#000000;fillColor=#ffffff;points=[];aspect=fixed;resizable=0;" parent="1" vertex="1">
          <mxGeometry x="460" y="315" width="10" height="10" as="geometry" />
        </mxCell>
        <mxCell id="Q9d0RFTFAIisrgZCZcX0-82" value="" style="rounded=0;orthogonalLoop=1;jettySize=auto;html=1;endArrow=halfCircle;endFill=0;endSize=6;strokeWidth=1;exitX=1;exitY=0.5;exitDx=0;exitDy=0;" parent="1" source="Q9d0RFTFAIisrgZCZcX0-78" edge="1">
          <mxGeometry relative="1" as="geometry">
            <mxPoint x="489.37" y="320" as="sourcePoint" />
            <mxPoint x="465" y="320" as="targetPoint" />
            <Array as="points" />
          </mxGeometry>
        </mxCell>
        <mxCell id="Q9d0RFTFAIisrgZCZcX0-83" value="next" style="html=1;" parent="1" vertex="1">
          <mxGeometry x="554.37" y="310" width="30" height="20" as="geometry" />
        </mxCell>
        <mxCell id="Q9d0RFTFAIisrgZCZcX0-84" value="next" style="html=1;" parent="1" vertex="1">
          <mxGeometry x="680" y="310" width="30" height="20" as="geometry" />
        </mxCell>
        <mxCell id="Q9d0RFTFAIisrgZCZcX0-85" value="&lt;div align=&quot;left&quot;&gt;r : road&lt;/div&gt;" style="html=1;align=left;verticalAlign=top;rounded=1;absoluteArcSize=1;arcSize=10;dashed=0;" parent="1" vertex="1">
          <mxGeometry x="250" y="265" width="90" height="40" as="geometry" />
        </mxCell>
        <mxCell id="Q9d0RFTFAIisrgZCZcX0-86" value="" style="rounded=0;orthogonalLoop=1;jettySize=auto;html=1;endArrow=none;endFill=0;exitX=1;exitY=0.5;exitDx=0;exitDy=0;" parent="1" source="Q9d0RFTFAIisrgZCZcX0-85" edge="1">
          <mxGeometry relative="1" as="geometry">
            <mxPoint x="475" y="400" as="sourcePoint" />
            <mxPoint x="360" y="225" as="targetPoint" />
            <Array as="points">
              <mxPoint x="360" y="285" />
              <mxPoint x="360" y="225" />
            </Array>
          </mxGeometry>
        </mxCell>
        <mxCell id="Q9d0RFTFAIisrgZCZcX0-87" value="v1 :&amp;nbsp; vehicle" style="html=1;align=center;verticalAlign=top;rounded=1;absoluteArcSize=1;arcSize=10;dashed=0;" parent="1" vertex="1">
          <mxGeometry x="415" y="195" width="95" height="50" as="geometry" />
        </mxCell>
        <mxCell id="Q9d0RFTFAIisrgZCZcX0-88" value="connV" style="html=1;" parent="1" vertex="1">
          <mxGeometry x="415" y="215" width="35" height="20" as="geometry" />
        </mxCell>
        <mxCell id="Q9d0RFTFAIisrgZCZcX0-89" value="next" style="html=1;" parent="1" vertex="1">
          <mxGeometry x="480" y="215" width="30" height="20" as="geometry" />
        </mxCell>
        <mxCell id="Q9d0RFTFAIisrgZCZcX0-90" value="" style="rounded=0;orthogonalLoop=1;jettySize=auto;html=1;endArrow=none;endFill=0;exitX=1;exitY=0.5;exitDx=0;exitDy=0;" parent="1" source="Q9d0RFTFAIisrgZCZcX0-85" edge="1">
          <mxGeometry relative="1" as="geometry">
            <mxPoint x="338" y="404" as="sourcePoint" />
            <mxPoint x="360" y="320" as="targetPoint" />
            <Array as="points">
              <mxPoint x="360" y="285" />
            </Array>
          </mxGeometry>
        </mxCell>
        <mxCell id="Q9d0RFTFAIisrgZCZcX0-91" value="" style="ellipse;whiteSpace=wrap;html=1;fontFamily=Helvetica;fontSize=12;fontColor=#000000;align=center;strokeColor=#000000;fillColor=#ffffff;points=[];aspect=fixed;resizable=0;" parent="1" vertex="1">
          <mxGeometry x="386.87" y="315" width="10" height="10" as="geometry" />
        </mxCell>
        <mxCell id="Q9d0RFTFAIisrgZCZcX0-92" value="" style="rounded=1;orthogonalLoop=1;jettySize=auto;html=1;endArrow=halfCircle;endFill=0;endSize=6;strokeWidth=1;targetPerimeterSpacing=-3;sourcePerimeterSpacing=0;" parent="1" target="Q9d0RFTFAIisrgZCZcX0-91" edge="1">
          <mxGeometry relative="1" as="geometry">
            <mxPoint x="360" y="320" as="sourcePoint" />
            <mxPoint x="391.87" y="320" as="targetPoint" />
            <Array as="points">
              <mxPoint x="370" y="320" />
              <mxPoint x="380" y="320" />
            </Array>
          </mxGeometry>
        </mxCell>
        <mxCell id="Q9d0RFTFAIisrgZCZcX0-93" value="connV" style="html=1;" parent="1" vertex="1">
          <mxGeometry x="300" y="275" width="40" height="20" as="geometry" />
        </mxCell>
        <mxCell id="Q9d0RFTFAIisrgZCZcX0-94" value="moving" style="html=1;" parent="1" vertex="1">
          <mxGeometry x="300" y="275" width="40" height="20" as="geometry" />
        </mxCell>
        <mxCell id="Q9d0RFTFAIisrgZCZcX0-95" value="" style="rounded=0;orthogonalLoop=1;jettySize=auto;html=1;endArrow=none;endFill=0;exitX=0;exitY=0.5;exitDx=0;exitDy=0;" parent="1" source="Q9d0RFTFAIisrgZCZcX0-78" edge="1">
          <mxGeometry relative="1" as="geometry">
            <mxPoint x="411.87" y="320" as="sourcePoint" />
            <mxPoint x="396.8699999999999" y="320" as="targetPoint" />
          </mxGeometry>
        </mxCell>
        <mxCell id="Q9d0RFTFAIisrgZCZcX0-96" value="" style="ellipse;whiteSpace=wrap;html=1;fontFamily=Helvetica;fontSize=12;fontColor=#000000;align=center;strokeColor=#000000;fillColor=#ffffff;points=[];aspect=fixed;resizable=0;" parent="1" vertex="1">
          <mxGeometry x="385" y="220" width="10" height="10" as="geometry" />
        </mxCell>
        <mxCell id="Q9d0RFTFAIisrgZCZcX0-97" value="" style="rounded=0;orthogonalLoop=1;jettySize=auto;html=1;endArrow=halfCircle;endFill=0;endSize=6;strokeWidth=1;" parent="1" target="Q9d0RFTFAIisrgZCZcX0-96" edge="1">
          <mxGeometry relative="1" as="geometry">
            <mxPoint x="360" y="225" as="sourcePoint" />
            <mxPoint x="390" y="215" as="targetPoint" />
            <Array as="points" />
          </mxGeometry>
        </mxCell>
        <mxCell id="Q9d0RFTFAIisrgZCZcX0-98" value="" style="rounded=0;orthogonalLoop=1;jettySize=auto;html=1;endArrow=none;endFill=0;exitX=0;exitY=0.5;exitDx=0;exitDy=0;" parent="1" edge="1">
          <mxGeometry relative="1" as="geometry">
            <mxPoint x="415" y="225" as="sourcePoint" />
            <mxPoint x="395" y="225" as="targetPoint" />
          </mxGeometry>
        </mxCell>
        <mxCell id="Q9d0RFTFAIisrgZCZcX0-99" value="&lt;font style=&quot;font-size: 14px&quot;&gt;System running&lt;br&gt;&lt;/font&gt;" style="text;html=1;align=center;verticalAlign=middle;resizable=0;points=[];autosize=1;" parent="1" vertex="1">
          <mxGeometry x="290" y="170" width="110" height="20" as="geometry" />
        </mxCell>
        <mxCell id="Q9d0RFTFAIisrgZCZcX0-100" value="" style="endArrow=open;endFill=1;endSize=12;html=1;strokeWidth=3;" parent="1" edge="1">
          <mxGeometry width="160" relative="1" as="geometry">
            <mxPoint x="425" y="180" as="sourcePoint" />
            <mxPoint x="495" y="180" as="targetPoint" />
          </mxGeometry>
        </mxCell>
        <mxCell id="Q9d0RFTFAIisrgZCZcX0-101" value="&lt;font style=&quot;font-size: 14px&quot;&gt;SystemLog : v3.acceptQuit(p)&lt;/font&gt;" style="text;html=1;align=center;verticalAlign=middle;resizable=0;points=[];autosize=1;" parent="1" vertex="1">
          <mxGeometry x="490" y="170" width="200" height="20" as="geometry" />
        </mxCell>
        <mxCell id="3SxJr83WI45oSkX7Jk6Y-1" value="&lt;font style=&quot;font-size: 14px&quot;&gt;Test Events &lt;/font&gt;" style="text;html=1;align=center;verticalAlign=middle;resizable=0;points=[];autosize=1;fontSize=18;" vertex="1" parent="1">
          <mxGeometry x="200" y="405" width="90" height="30" as="geometry" />
        </mxCell>
        <mxCell id="3SxJr83WI45oSkX7Jk6Y-2" value="Reconfiguration&lt;br&gt;Path" style="text;html=1;align=center;verticalAlign=middle;resizable=0;points=[];autosize=1;fontSize=18;" vertex="1" parent="1">
          <mxGeometry x="170" y="546" width="140" height="50" as="geometry" />
        </mxCell>
        <mxCell id="3SxJr83WI45oSkX7Jk6Y-3" value="" style="endArrow=open;startArrow=circle;endFill=0;startFill=1;endSize=8;html=1;strokeWidth=4;fontSize=18;" edge="1" parent="1">
          <mxGeometry width="160" relative="1" as="geometry">
            <mxPoint x="324.38" y="495.6700000000001" as="sourcePoint" />
            <mxPoint x="413.76" y="495.5" as="targetPoint" />
          </mxGeometry>
        </mxCell>
        <mxCell id="3SxJr83WI45oSkX7Jk6Y-4" value="C1" style="text;html=1;align=center;verticalAlign=middle;resizable=0;points=[];autosize=1;fontSize=18;" vertex="1" parent="1">
          <mxGeometry x="310" y="546" width="40" height="30" as="geometry" />
        </mxCell>
        <mxCell id="3SxJr83WI45oSkX7Jk6Y-5" value="" style="endArrow=open;startArrow=circle;endFill=0;startFill=1;endSize=8;html=1;strokeWidth=4;fontSize=18;" edge="1" parent="1">
          <mxGeometry width="160" relative="1" as="geometry">
            <mxPoint x="528.38" y="495.6700000000002" as="sourcePoint" />
            <mxPoint x="648.38" y="495.5000000000001" as="targetPoint" />
          </mxGeometry>
        </mxCell>
        <mxCell id="3SxJr83WI45oSkX7Jk6Y-6" value="" style="endArrow=open;startArrow=circle;endFill=0;startFill=1;endSize=8;html=1;strokeWidth=4;fontSize=18;" edge="1" parent="1">
          <mxGeometry width="160" relative="1" as="geometry">
            <mxPoint x="650.25" y="495.6700000000002" as="sourcePoint" />
            <mxPoint x="745.26" y="496" as="targetPoint" />
          </mxGeometry>
        </mxCell>
        <mxCell id="3SxJr83WI45oSkX7Jk6Y-8" value="" style="endArrow=none;startArrow=circle;endFill=0;startFill=1;endSize=8;html=1;strokeWidth=4;fontSize=18;" edge="1" parent="1">
          <mxGeometry width="160" relative="1" as="geometry">
            <mxPoint x="748.38" y="495.84000000000003" as="sourcePoint" />
            <mxPoint x="768.38" y="495.4999999999999" as="targetPoint" />
          </mxGeometry>
        </mxCell>
        <mxCell id="3SxJr83WI45oSkX7Jk6Y-9" value="C4" style="text;html=1;align=center;verticalAlign=middle;resizable=0;points=[];autosize=1;fontSize=18;" vertex="1" parent="1">
          <mxGeometry x="645" y="546" width="40" height="30" as="geometry" />
        </mxCell>
        <mxCell id="3SxJr83WI45oSkX7Jk6Y-12" value="&lt;font style=&quot;font-size: 14px&quot;&gt;passRelay&lt;/font&gt;" style="text;html=1;align=center;verticalAlign=middle;resizable=0;points=[];autosize=1;fontSize=18;" vertex="1" parent="1">
          <mxGeometry x="455" y="461" width="80" height="30" as="geometry" />
        </mxCell>
        <mxCell id="3SxJr83WI45oSkX7Jk6Y-13" value="" style="endArrow=classic;html=1;strokeWidth=4;fontSize=18;" edge="1" parent="1">
          <mxGeometry width="50" height="50" relative="1" as="geometry">
            <mxPoint x="467.5" y="431" as="sourcePoint" />
            <mxPoint x="427.5" y="486" as="targetPoint" />
            <Array as="points">
              <mxPoint x="437.5" y="461" />
              <mxPoint x="458.5" y="461" />
            </Array>
          </mxGeometry>
        </mxCell>
        <mxCell id="3SxJr83WI45oSkX7Jk6Y-16" value="&lt;font style=&quot;font-size: 14px&quot;&gt;v2.join(v3)&lt;/font&gt;" style="text;html=1;align=center;verticalAlign=middle;resizable=0;points=[];autosize=1;fontSize=18;" vertex="1" parent="1">
          <mxGeometry x="334.38" y="405" width="80" height="30" as="geometry" />
        </mxCell>
        <mxCell id="3SxJr83WI45oSkX7Jk6Y-18" value="" style="endArrow=open;startArrow=circle;endFill=0;startFill=1;endSize=8;html=1;strokeWidth=4;fontSize=18;" edge="1" parent="1">
          <mxGeometry width="160" relative="1" as="geometry">
            <mxPoint x="415" y="495.6700000000002" as="sourcePoint" />
            <mxPoint x="534.38" y="496" as="targetPoint" />
          </mxGeometry>
        </mxCell>
        <mxCell id="3SxJr83WI45oSkX7Jk6Y-19" value="C2" style="text;html=1;align=center;verticalAlign=middle;resizable=0;points=[];autosize=1;fontSize=18;" vertex="1" parent="1">
          <mxGeometry x="415" y="546" width="40" height="30" as="geometry" />
        </mxCell>
        <mxCell id="3SxJr83WI45oSkX7Jk6Y-20" value="C3" style="text;html=1;align=center;verticalAlign=middle;resizable=0;points=[];autosize=1;fontSize=18;" vertex="1" parent="1">
          <mxGeometry x="528.38" y="546" width="40" height="30" as="geometry" />
        </mxCell>
        <mxCell id="3SxJr83WI45oSkX7Jk6Y-21" value="&lt;font style=&quot;font-size: 14px&quot;&gt;run&lt;/font&gt;" style="text;html=1;align=center;verticalAlign=middle;resizable=0;points=[];autosize=1;fontSize=18;" vertex="1" parent="1">
          <mxGeometry x="690.88" y="461" width="40" height="30" as="geometry" />
        </mxCell>
        <mxCell id="3SxJr83WI45oSkX7Jk6Y-23" value="4" style="ellipse;fillColor=#ffffff;strokeColor=#000000;fontSize=18;" vertex="1" parent="1">
          <mxGeometry x="674.37" y="370" width="30" height="30" as="geometry" />
        </mxCell>
        <mxCell id="3SxJr83WI45oSkX7Jk6Y-24" value="3" style="ellipse;fillColor=#ffffff;strokeColor=#000000;fontSize=18;" vertex="1" parent="1">
          <mxGeometry x="560.88" y="370" width="30" height="30" as="geometry" />
        </mxCell>
        <mxCell id="3SxJr83WI45oSkX7Jk6Y-25" value="2" style="ellipse;fillColor=#ffffff;strokeColor=#000000;fontSize=18;" vertex="1" parent="1">
          <mxGeometry x="450" y="370" width="30" height="30" as="geometry" />
        </mxCell>
        <mxCell id="3SxJr83WI45oSkX7Jk6Y-26" value="1" style="ellipse;fillColor=#ffffff;strokeColor=#000000;fontSize=18;" vertex="1" parent="1">
          <mxGeometry x="350" y="370" width="30" height="30" as="geometry" />
        </mxCell>
        <mxCell id="3SxJr83WI45oSkX7Jk6Y-29" value="&lt;font style=&quot;font-size: 14px&quot;&gt;acceptJoin&lt;/font&gt;" style="text;html=1;align=center;verticalAlign=middle;resizable=0;points=[];autosize=1;fontSize=18;" vertex="1" parent="1">
          <mxGeometry x="350" y="461" width="80" height="30" as="geometry" />
        </mxCell>
        <mxCell id="3SxJr83WI45oSkX7Jk6Y-30" value="&lt;font style=&quot;font-size: 14px&quot;&gt;acceptQuit&lt;/font&gt;" style="text;html=1;align=center;verticalAlign=middle;resizable=0;points=[];autosize=1;fontSize=18;" vertex="1" parent="1">
          <mxGeometry x="560.88" y="461" width="80" height="30" as="geometry" />
        </mxCell>
        <mxCell id="3SxJr83WI45oSkX7Jk6Y-31" value="&lt;font style=&quot;font-size: 14px&quot;&gt; δ&lt;/font&gt;" style="text;html=1;align=center;verticalAlign=middle;resizable=0;points=[];autosize=1;fontSize=18;" vertex="1" parent="1">
          <mxGeometry x="570" y="405" width="20" height="30" as="geometry" />
        </mxCell>
        <mxCell id="3SxJr83WI45oSkX7Jk6Y-33" value="&lt;font style=&quot;font-size: 14px&quot;&gt; δ&lt;/font&gt;" style="text;html=1;align=center;verticalAlign=middle;resizable=0;points=[];autosize=1;fontSize=18;" vertex="1" parent="1">
          <mxGeometry x="460" y="405" width="20" height="30" as="geometry" />
        </mxCell>
        <mxCell id="3SxJr83WI45oSkX7Jk6Y-36" value="&lt;font style=&quot;font-size: 14px&quot;&gt;Steps&lt;/font&gt;" style="text;html=1;align=center;verticalAlign=middle;resizable=0;points=[];autosize=1;strokeColor=none;" vertex="1" parent="1">
          <mxGeometry x="220" y="380" width="50" height="20" as="geometry" />
        </mxCell>
        <mxCell id="3SxJr83WI45oSkX7Jk6Y-37" value="&lt;font style=&quot;font-size: 14px&quot;&gt;Execution Trace&lt;/font&gt;" style="text;html=1;align=center;verticalAlign=middle;resizable=0;points=[];autosize=1;strokeColor=none;" vertex="1" parent="1">
          <mxGeometry x="180" y="486" width="120" height="20" as="geometry" />
        </mxCell>
        <mxCell id="3SxJr83WI45oSkX7Jk6Y-39" value="&lt;font style=&quot;font-size: 16px&quot;&gt;run&lt;/font&gt;" style="text;html=1;align=center;verticalAlign=middle;resizable=0;points=[];autosize=1;fontSize=18;" vertex="1" parent="1">
          <mxGeometry x="690.88" y="546" width="40" height="30" as="geometry" />
        </mxCell>
        <mxCell id="3SxJr83WI45oSkX7Jk6Y-41" value="&lt;font style=&quot;font-size: 14px&quot;&gt;acceptJoin&lt;/font&gt;" style="text;html=1;align=center;verticalAlign=middle;resizable=0;points=[];autosize=1;fontSize=18;" vertex="1" parent="1">
          <mxGeometry x="345" y="546" width="80" height="30" as="geometry" />
        </mxCell>
        <mxCell id="3SxJr83WI45oSkX7Jk6Y-42" value="&lt;font style=&quot;font-size: 14px&quot;&gt;acceptQuit&lt;/font&gt;" style="text;html=1;align=center;verticalAlign=middle;resizable=0;points=[];autosize=1;fontSize=18;" vertex="1" parent="1">
          <mxGeometry x="568.38" y="546" width="80" height="30" as="geometry" />
        </mxCell>
        <mxCell id="3SxJr83WI45oSkX7Jk6Y-44" value="" style="endArrow=classic;html=1;strokeWidth=4;fontSize=18;" edge="1" parent="1">
          <mxGeometry width="50" height="50" relative="1" as="geometry">
            <mxPoint x="580.88" y="431" as="sourcePoint" />
            <mxPoint x="540.88" y="486" as="targetPoint" />
            <Array as="points">
              <mxPoint x="550.88" y="461" />
              <mxPoint x="571.88" y="461" />
            </Array>
          </mxGeometry>
        </mxCell>
        <mxCell id="3SxJr83WI45oSkX7Jk6Y-49" value="" style="endArrow=classic;html=1;strokeWidth=4;fontSize=18;" edge="1" parent="1">
          <mxGeometry width="50" height="50" relative="1" as="geometry">
            <mxPoint x="695.26" y="431" as="sourcePoint" />
            <mxPoint x="655.26" y="486" as="targetPoint" />
            <Array as="points">
              <mxPoint x="665.26" y="461" />
              <mxPoint x="686.26" y="461" />
            </Array>
          </mxGeometry>
        </mxCell>
        <mxCell id="3SxJr83WI45oSkX7Jk6Y-50" value="" style="endArrow=classic;html=1;strokeWidth=4;fontSize=18;" edge="1" parent="1">
          <mxGeometry width="50" height="50" relative="1" as="geometry">
            <mxPoint x="374.9999999999999" y="431" as="sourcePoint" />
            <mxPoint x="334.9999999999999" y="486" as="targetPoint" />
            <Array as="points">
              <mxPoint x="345" y="461" />
              <mxPoint x="366" y="461" />
            </Array>
          </mxGeometry>
        </mxCell>
        <mxCell id="3SxJr83WI45oSkX7Jk6Y-51" value="&lt;font style=&quot;font-size: 14px&quot;&gt; δ&lt;/font&gt;" style="text;html=1;align=center;verticalAlign=middle;resizable=0;points=[];autosize=1;fontSize=18;" vertex="1" parent="1">
          <mxGeometry x="685" y="405" width="20" height="30" as="geometry" />
        </mxCell>
        <mxCell id="3SxJr83WI45oSkX7Jk6Y-53" value="&lt;font style=&quot;font-size: 14px&quot;&gt;passRelay&lt;/font&gt;" style="text;html=1;align=center;verticalAlign=middle;resizable=0;points=[];autosize=1;fontSize=18;" vertex="1" parent="1">
          <mxGeometry x="455" y="546" width="80" height="30" as="geometry" />
        </mxCell>
      </root>
    </mxGraphModel>
  </diagram>
</mxfile>
